<?xml version="1.0" encoding="utf-8"?>
<!-- Generator: Adobe Illustrator 24.2.3, SVG Export Plug-In . SVG Version: 6.00 Build 0)  -->
<svg version="1.1" id="Capa_1" xmlns="http://www.w3.org/2000/svg" xmlns:xlink="http://www.w3.org/1999/xlink" x="0px" y="0px"
	 viewBox="0 0 1000 1000" style="enable-background:new 0 0 1000 1000;" xml:space="preserve">
<style type="text/css">
	.st0{fill:#9AC31C;}
	.st1{fill:#7C7C7B;}
	.st2{fill:#FFFFFF;}
	.st3{fill:#444041;}
</style>
<rect x="-29.33" y="-29.33" class="st0" width="1058.67" height="1058.67"/>
<g>
	<g>
		<path class="st2" d="M544.72,378.43c4.88-5.02,10.84-7.53,17.91-7.53c7.06,0,13.03,2.52,17.92,7.53
			c4.88,5.03,7.33,11.07,7.33,18.12c0,6.79-2.44,12.62-7.33,17.51c-4.89,4.88-10.87,7.33-17.92,7.33c-7.06,0-13.03-2.45-17.91-7.33
			c-4.89-4.89-7.33-10.72-7.33-17.51C537.39,389.5,539.83,383.46,544.72,378.43z"/>
		<path class="st2" d="M643.52,551.2c-30.16,0-54.69-24.53-54.69-54.68c0-30.15,24.53-54.69,54.69-54.69
			c30.15,0,54.68,24.53,54.68,54.69C698.19,526.67,673.67,551.2,643.52,551.2z M641.45,466.88c-16.34,0-29.64,13.3-29.64,29.64
			c0,16.34,13.3,29.64,29.64,29.64c16.34,0,29.64-13.29,29.64-29.64C671.09,480.18,657.79,466.88,641.45,466.88z"/>
		<path class="st2" d="M413.81,551.2c-30.15,0-54.68-24.53-54.68-54.68c0-30.15,24.53-54.69,54.68-54.69
			c30.15,0,54.68,24.53,54.68,54.69C468.49,526.67,443.97,551.2,413.81,551.2z M413.81,466.88c-16.34,0-29.64,13.3-29.64,29.64
			c0,16.34,13.3,29.64,29.64,29.64c16.34,0,29.64-13.29,29.64-29.64C443.45,480.18,430.15,466.88,413.81,466.88z"/>
		<path class="st3" d="M808.68,541.6c0.01-0.09,0.01-0.19,0.01-0.29c0-0.1-0.01-0.19-0.01-0.29V490.2
			c0-26.45-22.09-47.84-49.41-47.84c-20.58,0-30.53,2.94-45.53,8.49c0,0-0.03,91.5,0,91.58c0,5.53,5.33,8.04,11.05,8.04
			c5.74,0,10.99-2.32,10.99-8.09c0.03-0.07,0.05-74.23,0.05-74.23c6.24-2.29,11.13-3.92,19.56-4.41h3.88
			c15.17,0,27.32,11.92,27.32,26.45v51.86c0,0.09,0.02,0.18,0.06,0.27c0.51,5.63,5.24,8.15,11,8.15c5.8,0,10.55-2.59,11-8.28
			c0.01-0.05,0.03-0.09,0.03-0.14V541.6z"/>
		<path class="st3" d="M343.59,490.2c0-26.45-14.33-47.84-41.48-47.84c-18.72,0-28.84,2.28-41.66,7.02
			c-6.24-4.57-14.16-7.02-23.61-7.02c-20.57,0-30.52,2.78-45.53,8.49v90.46c0,6.1,4.95,9.17,11.05,9.17c6.1,0,11.05-3.07,11.05-9.17
			c0-0.05-0.01-0.09-0.01-0.14v-73.01c6.24-2.29,11.13-4.08,19.56-4.41h3.88c15.18,0,19.56,11.75,19.56,26.45v50.67
			c-0.01,0.15-0.02,0.29-0.02,0.44c0,6.1,4.95,9.17,11.05,9.17c6.07,0,11.01-3.02,11.04-9.09c0-0.03,0.02-0.05,0.02-0.08v-73.15
			c6.24-2.29,11.13-4.08,19.56-4.41h4.05c15.01,0,19.39,11.75,19.39,26.45v50.96l0,0c0,0.05,0,0.1,0,0.15
			c0,6.1,4.94,9.17,11.05,9.17c6.1,0,11.05-3.07,11.05-9.17c0-0.04,0-0.08-0.01-0.12c0-0.01,0.01-0.02,0.01-0.03V490.2z"/>
		<path class="st3" d="M529.92,442.36c-0.04,0-0.08,0.01-0.13,0.01c-0.02,0-0.04-0.01-0.07-0.01h-16.81V422.7
			c0-0.05-0.02-0.09-0.03-0.14c-0.33-5.81-5.13-8.54-11.03-8.54c-6.11,0-11.07,3.07-11.07,9.18c0,0.22,0.02,0.44,0.04,0.66v18.51
			h-13.94c-0.05,0-0.1,0.02-0.14,0.03c-0.09,0-0.18-0.03-0.27-0.03c-5.45,0-7.98,4.42-7.98,9.86c0,5.24,2.22,9.49,7.38,9.8
			c0.12,0.05,0.23,0.09,0.36,0.09h14.59l0.02,80.42c0,5.54,5.41,7.84,11.02,7.84c5.6,0,10.99-2.34,11.04-7.84l0.02-80.42h16.81
			c0.06,0,0.11-0.02,0.16-0.03c0.01,0,0.02,0,0.03,0c5.45,0,7.98-4.42,7.98-9.86C537.9,446.78,535.37,442.36,529.92,442.36z"/>
		<path class="st3" d="M573.68,451.51c0-6.1-4.94-9.17-11.05-9.17c-6.1,0-11.05,3.07-11.05,9.17c0,0.04,0,0.09,0.01,0.13
			c0,0.01-0.01,0.01-0.01,0.02v90.88c0,5.47,5.44,7.84,11.05,7.84c5.6,0,11.05-2.34,11.05-7.84v-90.88c0-0.01-0.01-0.02-0.01-0.02
			C573.67,451.59,573.68,451.55,573.68,451.51z"/>
	</g>
	<g>
		<g>
			<path class="st3" d="M293.18,627.23c-0.3-0.6-0.86-1.35-1.92-1.35h-6.96v15.46c0,0.75-6.6,0.75-6.6,0v-41.95
				c0-0.3,1.36-0.55,3.18-0.6h14.82c7.21,0.05,13.56,6.62,13.56,13.75c0,5.67-3.98,11.54-9.23,12.85l9.23,15.86
				c0,0.95-7.36,0.9-7.86-0.05L293.18,627.23z M284.31,605.3v14.65h11.39c4.03,0.05,7.01-4.27,7.01-7.43s-3.03-7.23-7.01-7.23
				H284.31z"/>
			<path class="st3" d="M329.44,599.38c0-0.35,1.46-0.5,3.02-0.55h23.44c1.81,0,1.81,5.92,0,5.92h-19.86v12.6h17.54
				c1.81,0,1.81,5.92,0,5.92h-17.54v12.75h19.86c1.81,0,1.81,5.92,0,5.92h-23.44c-1.56,0-3.02-0.2-3.02-0.55V599.38z"/>
			<path class="st3" d="M377.43,599.43c0-0.75,5.9-0.75,6.5-0.15l20.62,30.36v-30.21c0-0.8,6.55-0.8,6.55,0v41.9
				c0,0.8-6,0.8-6.5,0.1l-20.62-30.31v30.21c0,0.8-6.55,0.8-6.55,0V599.43z"/>
			<path class="st3" d="M443.98,605.35h-13.16c-0.76,0-0.76-6.52,0-6.52h32.87c0.76,0,0.76,6.52,0,6.52h-13.16v36.03
				c0,0.75-6.56,0.75-6.56,0V605.35z"/>
			<path class="st3" d="M572.6,599.38c0-0.35,1.46-0.5,2.97-0.55h23.44c1.81,0,1.81,5.92,0,5.92h-19.86v12.6h17.54
				c1.81,0,1.81,5.92,0,5.92h-17.54v18.12c0,0.75-6.55,0.75-6.55,0V599.38z"/>
			<path class="st3" d="M620.55,599.58c0-0.95,6.6-0.95,6.6,0v23.54c0,6.77,5.5,12.24,12.25,12.24h0.1c6.76,0,12.3-5.47,12.3-12.24
				v-23.54c0-0.95,6.56-0.95,6.56,0v23.54c0,10.39-8.42,18.82-18.86,18.82h-0.1c-10.39,0-18.86-8.43-18.86-18.82V599.58z"/>
			<path class="st3" d="M680.04,599.43c0-0.75,5.9-0.75,6.5-0.15l20.62,30.36v-30.21c0-0.8,6.55-0.8,6.55,0v41.9
				c0,0.8-6,0.8-6.5,0.1l-20.62-30.31v30.21c0,0.8-6.55,0.8-6.55,0V599.43z"/>
		</g>
		<path class="st3" d="M525.89,634.28c2.57-3.23,3.97-7.14,4.18-11.63c0.01-0.23,0.02-0.83,0.02-1.27c0-0.59-0.5-0.53-0.5-0.53
			h-5.42c0,0-0.47-0.02-0.47,0.58c0,0.43-0.01,0.9-0.03,1.13c-0.14,2.47-0.79,4.74-1.93,6.77l-8.78-10.51l2.61-1.89
			c2.15-1.57,3.74-3.08,4.73-4.48c1.03-1.46,1.55-3.18,1.55-5.12c0-2.7-1.05-5-3.11-6.83c-2.04-1.82-4.77-2.74-8.09-2.74
			c-3.34,0-6.03,0.94-8,2.8c-1.98,1.87-2.98,4.56-2.98,7.99c0,1.6,0.37,3.21,1.11,4.77c0.64,1.37,1.67,2.96,3.05,4.73
			c-2.58,1.75-4.51,3.48-5.75,5.14c-1.38,1.84-2.07,3.99-2.07,6.39c0,3.74,1.33,6.8,3.95,9.11c2.59,2.28,6.08,3.44,10.35,3.44
			c4.04,0,7.68-1.11,10.84-3.31l1.99,2.37c0.18,0.21,0.45,0.34,0.73,0.34h6.06c0.81,0,1.25-0.94,0.73-1.56L525.89,634.28z
			 M506.66,608.61c0-1.59,0.39-2.87,1.15-3.8c0.74-0.9,1.74-1.34,3.04-1.34c1.34,0,2.4,0.38,3.23,1.15
			c0.82,0.76,1.22,1.63,1.22,2.67c0,1.96-0.83,3.49-2.54,4.66l-3.5,2.37C507.53,612.02,506.66,610.1,506.66,608.61z M507.06,623.12
			l0.66-0.47l9.58,11.51c-2.18,1.45-4.46,2.19-6.77,2.19c-2.48,0-4.38-0.63-5.64-1.86c-1.27-1.24-1.89-2.86-1.89-4.93
			C503,627.31,504.37,625.14,507.06,623.12z"/>
	</g>
</g>
</svg>
